<mxfile modified="2023-11-01T02:37:34.341Z" host="app.diagrams.net" agent="Mozilla/5.0 (Windows NT 10.0; Win64; x64) AppleWebKit/537.36 (KHTML, like Gecko) Chrome/118.0.0.0 Safari/537.36" etag="rUOzBo7PehMcjaAAQdbN" version="22.0.8" type="github">
  <diagram id="Ht1M8jgEwFfnCIfOTk4-" name="Page-1">
    <mxGraphModel dx="1355" dy="1544" grid="1" gridSize="10" guides="1" tooltips="1" connect="1" arrows="1" fold="1" page="1" pageScale="1" pageWidth="1169" pageHeight="827" math="0" shadow="0">
      <root>
        <mxCell id="0" />
        <mxCell id="1" parent="0" />
        <mxCell id="trIx7C1fxaMWtldnHz-Z-1" value="&lt;font color=&quot;#0000ff&quot;&gt;VPC 10.32.0.0/16&lt;br&gt;us-east-1&lt;br&gt;&lt;/font&gt;" style="points=[[0,0],[0.25,0],[0.5,0],[0.75,0],[1,0],[1,0.25],[1,0.5],[1,0.75],[1,1],[0.75,1],[0.5,1],[0.25,1],[0,1],[0,0.75],[0,0.5],[0,0.25]];outlineConnect=0;gradientColor=none;html=1;whiteSpace=wrap;fontSize=12;fontStyle=0;container=1;pointerEvents=0;collapsible=0;recursiveResize=0;shape=mxgraph.aws4.group;grIcon=mxgraph.aws4.group_vpc;strokeColor=#248814;fillColor=none;verticalAlign=top;align=left;spacingLeft=30;fontColor=#AAB7B8;dashed=0;" parent="1" vertex="1">
          <mxGeometry x="40" y="-801.5" width="990" height="551.5" as="geometry" />
        </mxCell>
        <mxCell id="trIx7C1fxaMWtldnHz-Z-2" value="Availability zone us-east-1a" style="sketch=0;outlineConnect=0;gradientColor=none;html=1;whiteSpace=wrap;fontSize=12;fontStyle=0;shape=mxgraph.aws4.group;grIcon=mxgraph.aws4.group_availability_zone;strokeColor=#545B64;fillColor=none;verticalAlign=top;align=left;spacingLeft=30;fontColor=#545B64;dashed=1;" parent="trIx7C1fxaMWtldnHz-Z-1" vertex="1">
          <mxGeometry x="21" y="56.75" width="309" height="463.25" as="geometry" />
        </mxCell>
        <mxCell id="trIx7C1fxaMWtldnHz-Z-3" value="Availability zone us-east-1b" style="sketch=0;outlineConnect=0;gradientColor=none;html=1;whiteSpace=wrap;fontSize=12;fontStyle=0;shape=mxgraph.aws4.group;grIcon=mxgraph.aws4.group_availability_zone;strokeColor=#545B64;fillColor=none;verticalAlign=top;align=left;spacingLeft=30;fontColor=#545B64;dashed=1;" parent="trIx7C1fxaMWtldnHz-Z-1" vertex="1">
          <mxGeometry x="348.5" y="56.75" width="291.5" height="463.25" as="geometry" />
        </mxCell>
        <mxCell id="trIx7C1fxaMWtldnHz-Z-6" value="Public subnet A&lt;br&gt;10.32.1.0/24&lt;br&gt;us-east-1a" style="points=[[0,0],[0.25,0],[0.5,0],[0.75,0],[1,0],[1,0.25],[1,0.5],[1,0.75],[1,1],[0.75,1],[0.5,1],[0.25,1],[0,1],[0,0.75],[0,0.5],[0,0.25]];outlineConnect=0;gradientColor=none;html=1;whiteSpace=wrap;fontSize=12;fontStyle=0;container=1;pointerEvents=0;collapsible=0;recursiveResize=0;shape=mxgraph.aws4.group;grIcon=mxgraph.aws4.group_security_group;grStroke=0;strokeColor=#248814;fillColor=#E9F3E6;verticalAlign=top;align=left;spacingLeft=30;fontColor=#248814;dashed=0;" parent="trIx7C1fxaMWtldnHz-Z-1" vertex="1">
          <mxGeometry x="40" y="101.5" width="260" height="168.5" as="geometry" />
        </mxCell>
        <mxCell id="trIx7C1fxaMWtldnHz-Z-20" value="" style="outlineConnect=0;dashed=0;verticalLabelPosition=bottom;verticalAlign=top;align=center;html=1;shape=mxgraph.aws3.route_table;fillColor=#F58536;gradientColor=none;" parent="trIx7C1fxaMWtldnHz-Z-6" vertex="1">
          <mxGeometry x="150" y="-20" width="50" height="40" as="geometry" />
        </mxCell>
        <mxCell id="aHG4INUPpNTib7LrLTzQ-5" value="" style="edgeStyle=segmentEdgeStyle;endArrow=classic;html=1;curved=0;rounded=0;endSize=8;startSize=8;exitX=0;exitY=0.412;exitDx=0;exitDy=0;exitPerimeter=0;" edge="1" parent="trIx7C1fxaMWtldnHz-Z-6" source="trIx7C1fxaMWtldnHz-Z-14">
          <mxGeometry width="50" height="50" relative="1" as="geometry">
            <mxPoint x="220" y="80" as="sourcePoint" />
            <mxPoint x="170" y="20" as="targetPoint" />
          </mxGeometry>
        </mxCell>
        <mxCell id="aHG4INUPpNTib7LrLTzQ-13" value="" style="edgeStyle=elbowEdgeStyle;elbow=vertical;endArrow=classic;html=1;curved=0;rounded=0;endSize=8;startSize=8;entryX=0.5;entryY=1;entryDx=0;entryDy=0;entryPerimeter=0;" edge="1" parent="trIx7C1fxaMWtldnHz-Z-6">
          <mxGeometry width="50" height="50" relative="1" as="geometry">
            <mxPoint x="170" y="171" as="sourcePoint" />
            <mxPoint x="225" y="100" as="targetPoint" />
            <Array as="points">
              <mxPoint x="-50" y="136.5" />
            </Array>
          </mxGeometry>
        </mxCell>
        <mxCell id="aHG4INUPpNTib7LrLTzQ-22" value="NAT Gateway" style="text;html=1;strokeColor=none;fillColor=none;align=center;verticalAlign=middle;whiteSpace=wrap;rounded=0;" vertex="1" parent="trIx7C1fxaMWtldnHz-Z-6">
          <mxGeometry x="150" y="90" width="60" height="30" as="geometry" />
        </mxCell>
        <mxCell id="aHG4INUPpNTib7LrLTzQ-30" value="Route&lt;br&gt;Table" style="text;html=1;strokeColor=none;fillColor=none;align=center;verticalAlign=middle;whiteSpace=wrap;rounded=0;" vertex="1" parent="trIx7C1fxaMWtldnHz-Z-6">
          <mxGeometry x="190" width="60" height="30" as="geometry" />
        </mxCell>
        <mxCell id="trIx7C1fxaMWtldnHz-Z-8" value="Public subnet B&lt;br&gt;10.32.2.0/24&lt;br&gt;us-east-1b" style="points=[[0,0],[0.25,0],[0.5,0],[0.75,0],[1,0],[1,0.25],[1,0.5],[1,0.75],[1,1],[0.75,1],[0.5,1],[0.25,1],[0,1],[0,0.75],[0,0.5],[0,0.25]];outlineConnect=0;gradientColor=none;html=1;whiteSpace=wrap;fontSize=12;fontStyle=0;container=1;pointerEvents=0;collapsible=0;recursiveResize=0;shape=mxgraph.aws4.group;grIcon=mxgraph.aws4.group_security_group;grStroke=0;strokeColor=#248814;fillColor=#E9F3E6;verticalAlign=top;align=left;spacingLeft=30;fontColor=#248814;dashed=0;" parent="trIx7C1fxaMWtldnHz-Z-1" vertex="1">
          <mxGeometry x="364.25" y="101.5" width="245.75" height="168.5" as="geometry" />
        </mxCell>
        <mxCell id="trIx7C1fxaMWtldnHz-Z-24" value="" style="sketch=0;outlineConnect=0;fontColor=#232F3E;gradientColor=none;fillColor=#ED7100;strokeColor=none;dashed=0;verticalLabelPosition=bottom;verticalAlign=top;align=center;html=1;fontSize=12;fontStyle=0;aspect=fixed;pointerEvents=1;shape=mxgraph.aws4.elastic_ip_address;" parent="trIx7C1fxaMWtldnHz-Z-8" vertex="1">
          <mxGeometry x="215.75" y="40" width="48" height="20" as="geometry" />
        </mxCell>
        <mxCell id="trIx7C1fxaMWtldnHz-Z-15" value="" style="outlineConnect=0;dashed=0;verticalLabelPosition=bottom;verticalAlign=top;align=center;html=1;shape=mxgraph.aws3.vpc_nat_gateway;fillColor=#F58534;gradientColor=none;" parent="trIx7C1fxaMWtldnHz-Z-8" vertex="1">
          <mxGeometry x="181.75" y="60" width="49" height="48.5" as="geometry" />
        </mxCell>
        <mxCell id="aHG4INUPpNTib7LrLTzQ-3" value="" style="edgeStyle=elbowEdgeStyle;elbow=vertical;endArrow=classic;html=1;curved=0;rounded=0;endSize=8;startSize=8;entryX=0.5;entryY=1;entryDx=0;entryDy=0;entryPerimeter=0;" edge="1" parent="trIx7C1fxaMWtldnHz-Z-8">
          <mxGeometry width="50" height="50" relative="1" as="geometry">
            <mxPoint x="155.75" y="179.5" as="sourcePoint" />
            <mxPoint x="210.75" y="108.5" as="targetPoint" />
          </mxGeometry>
        </mxCell>
        <mxCell id="aHG4INUPpNTib7LrLTzQ-10" value="" style="edgeStyle=segmentEdgeStyle;endArrow=classic;html=1;curved=0;rounded=0;endSize=8;startSize=8;exitX=0;exitY=0.412;exitDx=0;exitDy=0;exitPerimeter=0;" edge="1" parent="trIx7C1fxaMWtldnHz-Z-8">
          <mxGeometry width="50" height="50" relative="1" as="geometry">
            <mxPoint x="191.25" y="80" as="sourcePoint" />
            <mxPoint x="161.25" y="20" as="targetPoint" />
          </mxGeometry>
        </mxCell>
        <mxCell id="aHG4INUPpNTib7LrLTzQ-14" value="" style="outlineConnect=0;dashed=0;verticalLabelPosition=bottom;verticalAlign=top;align=center;html=1;shape=mxgraph.aws3.route_table;fillColor=#F58536;gradientColor=none;" vertex="1" parent="trIx7C1fxaMWtldnHz-Z-8">
          <mxGeometry x="145.75" y="-20" width="50" height="40" as="geometry" />
        </mxCell>
        <mxCell id="aHG4INUPpNTib7LrLTzQ-24" value="NAT Gateway" style="text;html=1;strokeColor=none;fillColor=none;align=center;verticalAlign=middle;whiteSpace=wrap;rounded=0;" vertex="1" parent="trIx7C1fxaMWtldnHz-Z-8">
          <mxGeometry x="135.75" y="90" width="60" height="30" as="geometry" />
        </mxCell>
        <mxCell id="trIx7C1fxaMWtldnHz-Z-9" value="Public subnet B&lt;br&gt;10.32.3.0/24&lt;br&gt;us-east-1c" style="points=[[0,0],[0.25,0],[0.5,0],[0.75,0],[1,0],[1,0.25],[1,0.5],[1,0.75],[1,1],[0.75,1],[0.5,1],[0.25,1],[0,1],[0,0.75],[0,0.5],[0,0.25]];outlineConnect=0;gradientColor=none;html=1;whiteSpace=wrap;fontSize=12;fontStyle=0;container=1;pointerEvents=0;collapsible=0;recursiveResize=0;shape=mxgraph.aws4.group;grIcon=mxgraph.aws4.group_security_group;grStroke=0;strokeColor=#248814;fillColor=#E9F3E6;verticalAlign=top;align=left;spacingLeft=30;fontColor=#248814;dashed=0;" parent="trIx7C1fxaMWtldnHz-Z-1" vertex="1">
          <mxGeometry x="690" y="101.5" width="230" height="168.5" as="geometry" />
        </mxCell>
        <mxCell id="trIx7C1fxaMWtldnHz-Z-10" value="Private subnet A&lt;br&gt;10.32.11.0/24&lt;br&gt;us-east-1a" style="points=[[0,0],[0.25,0],[0.5,0],[0.75,0],[1,0],[1,0.25],[1,0.5],[1,0.75],[1,1],[0.75,1],[0.5,1],[0.25,1],[0,1],[0,0.75],[0,0.5],[0,0.25]];outlineConnect=0;html=1;whiteSpace=wrap;fontSize=12;fontStyle=0;container=1;pointerEvents=0;collapsible=0;recursiveResize=0;shape=mxgraph.aws4.group;grIcon=mxgraph.aws4.group_security_group;grStroke=0;strokeColor=#0000FF;fillColor=#dae8fc;verticalAlign=top;align=left;spacingLeft=30;dashed=0;" parent="trIx7C1fxaMWtldnHz-Z-1" vertex="1">
          <mxGeometry x="40" y="294.5" width="260" height="195.5" as="geometry" />
        </mxCell>
        <mxCell id="aHG4INUPpNTib7LrLTzQ-27" value="Route&lt;br&gt;Table" style="text;html=1;strokeColor=none;fillColor=none;align=center;verticalAlign=middle;whiteSpace=wrap;rounded=0;" vertex="1" parent="trIx7C1fxaMWtldnHz-Z-10">
          <mxGeometry x="145" y="27" width="60" height="30" as="geometry" />
        </mxCell>
        <mxCell id="trIx7C1fxaMWtldnHz-Z-11" value="Private subnet B&lt;br&gt;10.32.12.0/24&lt;br&gt;us-east-1b" style="points=[[0,0],[0.25,0],[0.5,0],[0.75,0],[1,0],[1,0.25],[1,0.5],[1,0.75],[1,1],[0.75,1],[0.5,1],[0.25,1],[0,1],[0,0.75],[0,0.5],[0,0.25]];outlineConnect=0;html=1;whiteSpace=wrap;fontSize=12;fontStyle=0;container=1;pointerEvents=0;collapsible=0;recursiveResize=0;shape=mxgraph.aws4.group;grIcon=mxgraph.aws4.group_security_group;grStroke=0;strokeColor=#0000FF;fillColor=#dae8fc;verticalAlign=top;align=left;spacingLeft=30;dashed=0;" parent="trIx7C1fxaMWtldnHz-Z-1" vertex="1">
          <mxGeometry x="364.25" y="290.5" width="245.75" height="195.5" as="geometry" />
        </mxCell>
        <mxCell id="trIx7C1fxaMWtldnHz-Z-17" value="" style="outlineConnect=0;dashed=0;verticalLabelPosition=bottom;verticalAlign=top;align=center;html=1;shape=mxgraph.aws3.route_table;fillColor=#F58536;gradientColor=none;" parent="trIx7C1fxaMWtldnHz-Z-11" vertex="1">
          <mxGeometry x="131.75" y="-9" width="50" height="40" as="geometry" />
        </mxCell>
        <mxCell id="aHG4INUPpNTib7LrLTzQ-26" value="Route&lt;br&gt;Table" style="text;html=1;strokeColor=none;fillColor=none;align=center;verticalAlign=middle;whiteSpace=wrap;rounded=0;" vertex="1" parent="trIx7C1fxaMWtldnHz-Z-11">
          <mxGeometry x="126.75" y="31" width="60" height="30" as="geometry" />
        </mxCell>
        <mxCell id="trIx7C1fxaMWtldnHz-Z-13" value="" style="outlineConnect=0;dashed=0;verticalLabelPosition=bottom;verticalAlign=top;align=center;html=1;shape=mxgraph.aws3.route_table;fillColor=#F58536;gradientColor=none;" parent="trIx7C1fxaMWtldnHz-Z-1" vertex="1">
          <mxGeometry x="190" y="281.5" width="50" height="40" as="geometry" />
        </mxCell>
        <mxCell id="trIx7C1fxaMWtldnHz-Z-14" value="" style="outlineConnect=0;dashed=0;verticalLabelPosition=bottom;verticalAlign=top;align=center;html=1;shape=mxgraph.aws3.vpc_nat_gateway;fillColor=#F58534;gradientColor=none;" parent="trIx7C1fxaMWtldnHz-Z-1" vertex="1">
          <mxGeometry x="240" y="161.5" width="49" height="48.5" as="geometry" />
        </mxCell>
        <mxCell id="trIx7C1fxaMWtldnHz-Z-22" value="" style="sketch=0;outlineConnect=0;fontColor=#232F3E;gradientColor=none;fillColor=#ED7100;strokeColor=none;dashed=0;verticalLabelPosition=bottom;verticalAlign=top;align=center;html=1;fontSize=12;fontStyle=0;aspect=fixed;pointerEvents=1;shape=mxgraph.aws4.elastic_ip_address;" parent="trIx7C1fxaMWtldnHz-Z-1" vertex="1">
          <mxGeometry x="270" y="141.5" width="48" height="20" as="geometry" />
        </mxCell>
        <mxCell id="trIx7C1fxaMWtldnHz-Z-25" value="" style="sketch=0;outlineConnect=0;fontColor=#232F3E;gradientColor=none;fillColor=#ED7100;strokeColor=none;dashed=0;verticalLabelPosition=bottom;verticalAlign=top;align=center;html=1;fontSize=12;fontStyle=0;aspect=fixed;pointerEvents=1;shape=mxgraph.aws4.elastic_ip_address;" parent="trIx7C1fxaMWtldnHz-Z-1" vertex="1">
          <mxGeometry x="890" y="141.5" width="48" height="20" as="geometry" />
        </mxCell>
        <mxCell id="trIx7C1fxaMWtldnHz-Z-16" value="" style="outlineConnect=0;dashed=0;verticalLabelPosition=bottom;verticalAlign=top;align=center;html=1;shape=mxgraph.aws3.vpc_nat_gateway;fillColor=#F58534;gradientColor=none;" parent="trIx7C1fxaMWtldnHz-Z-1" vertex="1">
          <mxGeometry x="860" y="161.5" width="49" height="48.5" as="geometry" />
        </mxCell>
        <mxCell id="trIx7C1fxaMWtldnHz-Z-12" value="Private subnet C&lt;br&gt;10.32.13.0/24&lt;br&gt;us-east-1c" style="points=[[0,0],[0.25,0],[0.5,0],[0.75,0],[1,0],[1,0.25],[1,0.5],[1,0.75],[1,1],[0.75,1],[0.5,1],[0.25,1],[0,1],[0,0.75],[0,0.5],[0,0.25]];outlineConnect=0;html=1;whiteSpace=wrap;fontSize=12;fontStyle=0;container=1;pointerEvents=0;collapsible=0;recursiveResize=0;shape=mxgraph.aws4.group;grIcon=mxgraph.aws4.group_security_group;grStroke=0;strokeColor=#0000FF;fillColor=#dae8fc;verticalAlign=top;align=left;spacingLeft=30;dashed=0;" parent="trIx7C1fxaMWtldnHz-Z-1" vertex="1">
          <mxGeometry x="685.25" y="290.5" width="234.75" height="195.5" as="geometry" />
        </mxCell>
        <mxCell id="trIx7C1fxaMWtldnHz-Z-18" value="`" style="outlineConnect=0;dashed=0;verticalLabelPosition=bottom;verticalAlign=top;align=center;html=1;shape=mxgraph.aws3.route_table;fillColor=#F58536;gradientColor=none;" parent="trIx7C1fxaMWtldnHz-Z-12" vertex="1">
          <mxGeometry x="140" y="-16.75" width="50" height="40" as="geometry" />
        </mxCell>
        <mxCell id="aHG4INUPpNTib7LrLTzQ-4" value="" style="edgeStyle=elbowEdgeStyle;elbow=vertical;endArrow=classic;html=1;curved=0;rounded=0;endSize=8;startSize=8;entryX=0.5;entryY=1;entryDx=0;entryDy=0;entryPerimeter=0;" edge="1" parent="trIx7C1fxaMWtldnHz-Z-1" target="trIx7C1fxaMWtldnHz-Z-16">
          <mxGeometry width="50" height="50" relative="1" as="geometry">
            <mxPoint x="850" y="281" as="sourcePoint" />
            <mxPoint x="905" y="210" as="targetPoint" />
          </mxGeometry>
        </mxCell>
        <mxCell id="aHG4INUPpNTib7LrLTzQ-11" value="" style="edgeStyle=segmentEdgeStyle;endArrow=classic;html=1;curved=0;rounded=0;endSize=8;startSize=8;exitX=0;exitY=0.412;exitDx=0;exitDy=0;exitPerimeter=0;" edge="1" parent="trIx7C1fxaMWtldnHz-Z-1">
          <mxGeometry width="50" height="50" relative="1" as="geometry">
            <mxPoint x="870" y="181.5" as="sourcePoint" />
            <mxPoint x="840" y="121.5" as="targetPoint" />
          </mxGeometry>
        </mxCell>
        <mxCell id="aHG4INUPpNTib7LrLTzQ-31" value="Route&lt;br&gt;Table" style="text;html=1;strokeColor=none;fillColor=none;align=center;verticalAlign=middle;whiteSpace=wrap;rounded=0;" vertex="1" parent="trIx7C1fxaMWtldnHz-Z-1">
          <mxGeometry x="550" y="101.5" width="60" height="30" as="geometry" />
        </mxCell>
        <mxCell id="trIx7C1fxaMWtldnHz-Z-26" value="" style="outlineConnect=0;dashed=0;verticalLabelPosition=bottom;verticalAlign=top;align=center;html=1;shape=mxgraph.aws3.internet_gateway;fillColor=#F58536;gradientColor=none;" parent="1" vertex="1">
          <mxGeometry x="1000" y="-810" width="69" height="72" as="geometry" />
        </mxCell>
        <mxCell id="wVeLMUc-FfvlE32uKDVn-6" value="" style="sketch=0;outlineConnect=0;fontColor=#232F3E;gradientColor=none;fillColor=#232F3D;strokeColor=none;dashed=0;verticalLabelPosition=bottom;verticalAlign=top;align=center;html=1;fontSize=12;fontStyle=0;aspect=fixed;pointerEvents=1;shape=mxgraph.aws4.internet_alt22;" parent="1" vertex="1">
          <mxGeometry x="1069" y="-570" width="60" height="60" as="geometry" />
        </mxCell>
        <mxCell id="trIx7C1fxaMWtldnHz-Z-4" value="Availability zone us-east-1c" style="sketch=0;outlineConnect=0;gradientColor=none;html=1;whiteSpace=wrap;fontSize=12;fontStyle=0;shape=mxgraph.aws4.group;grIcon=mxgraph.aws4.group_availability_zone;strokeColor=#545B64;fillColor=none;verticalAlign=top;align=left;spacingLeft=30;fontColor=#545B64;dashed=1;" parent="1" vertex="1">
          <mxGeometry x="697.63" y="-746.25" width="290" height="464.75" as="geometry" />
        </mxCell>
        <mxCell id="trIx7C1fxaMWtldnHz-Z-21" value="" style="outlineConnect=0;dashed=0;verticalLabelPosition=bottom;verticalAlign=top;align=center;html=1;shape=mxgraph.aws3.route_table;fillColor=#F58536;gradientColor=none;" parent="1" vertex="1">
          <mxGeometry x="860" y="-720" width="50" height="40" as="geometry" />
        </mxCell>
        <mxCell id="aHG4INUPpNTib7LrLTzQ-17" value="" style="edgeStyle=elbowEdgeStyle;elbow=horizontal;endArrow=classic;html=1;curved=0;rounded=0;endSize=8;startSize=8;" edge="1" parent="1" source="trIx7C1fxaMWtldnHz-Z-20">
          <mxGeometry width="50" height="50" relative="1" as="geometry">
            <mxPoint x="280" y="-710" as="sourcePoint" />
            <mxPoint x="1000" y="-790" as="targetPoint" />
            <Array as="points">
              <mxPoint x="260" y="-780" />
            </Array>
          </mxGeometry>
        </mxCell>
        <mxCell id="aHG4INUPpNTib7LrLTzQ-19" value="" style="edgeStyle=segmentEdgeStyle;endArrow=classic;html=1;curved=0;rounded=0;endSize=8;startSize=8;" edge="1" parent="1" source="wVeLMUc-FfvlE32uKDVn-6" target="trIx7C1fxaMWtldnHz-Z-26">
          <mxGeometry width="50" height="50" relative="1" as="geometry">
            <mxPoint x="1040" y="-850" as="sourcePoint" />
            <mxPoint x="990" y="-910" as="targetPoint" />
            <Array as="points">
              <mxPoint x="1099" y="-670" />
              <mxPoint x="1100" y="-770" />
            </Array>
          </mxGeometry>
        </mxCell>
        <mxCell id="aHG4INUPpNTib7LrLTzQ-20" value="" style="edgeStyle=elbowEdgeStyle;elbow=horizontal;endArrow=classic;html=1;curved=0;rounded=0;endSize=8;startSize=8;" edge="1" parent="1" source="aHG4INUPpNTib7LrLTzQ-14">
          <mxGeometry width="50" height="50" relative="1" as="geometry">
            <mxPoint x="581.5" y="-690.75" as="sourcePoint" />
            <mxPoint x="1000" y="-770" as="targetPoint" />
            <Array as="points">
              <mxPoint x="580" y="-770" />
            </Array>
          </mxGeometry>
        </mxCell>
        <mxCell id="aHG4INUPpNTib7LrLTzQ-21" value="" style="edgeStyle=elbowEdgeStyle;elbow=horizontal;endArrow=classic;html=1;curved=0;rounded=0;endSize=8;startSize=8;entryX=0.101;entryY=0.741;entryDx=0;entryDy=0;entryPerimeter=0;" edge="1" parent="1" target="trIx7C1fxaMWtldnHz-Z-26">
          <mxGeometry width="50" height="50" relative="1" as="geometry">
            <mxPoint x="890" y="-710" as="sourcePoint" />
            <mxPoint x="1308" y="-759" as="targetPoint" />
            <Array as="points">
              <mxPoint x="890" y="-760" />
            </Array>
          </mxGeometry>
        </mxCell>
        <mxCell id="aHG4INUPpNTib7LrLTzQ-23" value="NAT Gateway" style="text;html=1;strokeColor=none;fillColor=none;align=center;verticalAlign=middle;whiteSpace=wrap;rounded=0;" vertex="1" parent="1">
          <mxGeometry x="850" y="-610" width="60" height="30" as="geometry" />
        </mxCell>
        <mxCell id="aHG4INUPpNTib7LrLTzQ-29" value="Route&lt;br&gt;Table" style="text;html=1;strokeColor=none;fillColor=none;align=center;verticalAlign=middle;whiteSpace=wrap;rounded=0;" vertex="1" parent="1">
          <mxGeometry x="860" y="-490" width="60" height="30" as="geometry" />
        </mxCell>
        <mxCell id="aHG4INUPpNTib7LrLTzQ-32" value="Route&lt;br&gt;Table" style="text;html=1;strokeColor=none;fillColor=none;align=center;verticalAlign=middle;whiteSpace=wrap;rounded=0;" vertex="1" parent="1">
          <mxGeometry x="900" y="-700" width="60" height="30" as="geometry" />
        </mxCell>
        <mxCell id="aHG4INUPpNTib7LrLTzQ-33" value="Internet&amp;nbsp;&lt;br&gt;Gateway" style="text;html=1;strokeColor=none;fillColor=none;align=center;verticalAlign=middle;whiteSpace=wrap;rounded=0;" vertex="1" parent="1">
          <mxGeometry x="1030" y="-738" width="60" height="30" as="geometry" />
        </mxCell>
        <mxCell id="aHG4INUPpNTib7LrLTzQ-34" value="Internet&amp;nbsp;" style="text;html=1;strokeColor=none;fillColor=none;align=center;verticalAlign=middle;whiteSpace=wrap;rounded=0;" vertex="1" parent="1">
          <mxGeometry x="1080" y="-510" width="60" height="30" as="geometry" />
        </mxCell>
      </root>
    </mxGraphModel>
  </diagram>
</mxfile>
